<svg width="400" height="300" viewBox="0 0 400 300" fill="none" xmlns="http://www.w3.org/2000/svg">
<path d="M312.803 57.7725C319.772 66.9039 325.672 76.8245 330.383 87.3349L196.745 187.173L140.894 151.691V109.005L196.745 144.486L312.803 57.7725Z" fill="#21A038"/>
<path d="M83.8934 148.678C83.8934 146.762 83.9395 144.859 84.0316 142.968L50.1843 141.287C50.0691 143.738 50 146.214 50 148.712C49.9856 168.232 53.7741 187.562 61.1483 205.594C68.5224 223.627 79.3369 240.006 92.9715 253.792L116.98 229.472C106.485 218.878 98.1587 206.287 92.4805 192.421C86.8024 178.556 83.8841 163.689 83.8934 148.678Z" fill="url(#paint0_linear)"/>
<path d="M196.714 34.3394C198.603 34.3394 200.48 34.4095 202.347 34.5028L204.04 0.18842C201.614 0.0716645 199.171 0.0132939 196.714 0.0132939C177.444 -0.0105214 158.36 3.82341 140.557 11.2949C122.754 18.7665 106.582 29.7285 92.9712 43.5515L116.98 67.8833C127.433 57.2431 139.859 48.8019 153.543 43.0453C167.227 37.2887 181.897 34.3299 196.714 34.3394Z" fill="url(#paint1_linear)"/>
<path d="M196.714 263.017C194.825 263.017 192.946 263.017 191.069 262.865L189.375 297.168C191.81 297.293 194.256 297.355 196.714 297.355C215.975 297.375 235.05 293.539 252.844 286.065C270.637 278.592 286.798 267.628 300.399 253.805L276.436 229.485C265.981 240.12 253.556 248.556 239.875 254.311C226.195 260.065 211.526 263.024 196.714 263.017Z" fill="url(#paint2_linear)"/>
<path d="M260.308 54.2915L288.833 32.9836C262.761 11.5877 230.217 -0.0593927 196.668 0.00022776V34.338C219.386 34.3095 241.576 41.2671 260.308 54.2915Z" fill="url(#paint3_linear)"/>
<path d="M343.417 148.676C343.436 139.744 342.665 130.826 341.113 122.033L309.536 145.617C309.536 146.634 309.536 147.649 309.536 148.676C309.544 164.652 306.239 180.451 299.837 195.049C293.435 209.647 284.076 222.719 272.37 233.417L295.147 258.929C310.366 245.005 322.527 227.995 330.843 209.002C339.159 190.008 343.443 169.455 343.417 148.676Z" fill="#21A038"/>
<path d="M196.715 263.016C180.95 263.022 165.36 259.672 150.954 253.183C136.548 246.695 123.647 237.212 113.087 225.351L87.9263 248.421C101.664 263.848 118.448 276.175 137.189 284.605C155.93 293.034 176.21 297.378 196.715 297.353V263.016Z" fill="url(#paint4_linear)"/>
<path d="M121.059 63.9344L98.2941 38.4233C83.0705 52.345 70.9044 69.3541 62.5845 88.3475C54.2648 107.341 49.9773 127.894 50.0001 148.675H83.8935C83.8865 132.701 87.1913 116.902 93.5935 102.304C99.9959 87.7058 109.353 74.6336 121.059 63.9344Z" fill="url(#paint5_linear)"/>
<defs>
<linearGradient id="paint0_linear" x1="99.8263" y1="249.508" x2="61.9058" y2="141.343" gradientUnits="userSpaceOnUse">
<stop offset="0.14" stop-color="#F1E813"/>
<stop offset="0.3" stop-color="#E6E418"/>
<stop offset="0.58" stop-color="#C9DA26"/>
<stop offset="0.89" stop-color="#A2CC39"/>
</linearGradient>
<linearGradient id="paint1_linear" x1="102.648" y1="49.6228" x2="198.347" y2="13.6378" gradientUnits="userSpaceOnUse">
<stop offset="0.06" stop-color="#0FA7DF"/>
<stop offset="0.54" stop-color="#0098F8"/>
<stop offset="0.92" stop-color="#0290EA"/>
</linearGradient>
<linearGradient id="paint2_linear" x1="187.141" y1="276.631" x2="295.134" y2="252.558" gradientUnits="userSpaceOnUse">
<stop offset="0.12" stop-color="#A2CC39"/>
<stop offset="0.28" stop-color="#86C239"/>
<stop offset="0.87" stop-color="#219F38"/>
</linearGradient>
<linearGradient id="paint3_linear" x1="189.618" y1="11.5006" x2="282.04" y2="39.643" gradientUnits="userSpaceOnUse">
<stop offset="0.06" stop-color="#0290EA"/>
<stop offset="0.79" stop-color="#0C89CA"/>
</linearGradient>
<linearGradient id="paint4_linear" x1="96.4284" y1="244.241" x2="197.121" y2="281.374" gradientUnits="userSpaceOnUse">
<stop offset="0.13" stop-color="#F1E813"/>
<stop offset="0.3" stop-color="#EAE616"/>
<stop offset="0.53" stop-color="#D8DF1F"/>
<stop offset="0.8" stop-color="#BAD52D"/>
<stop offset="0.98" stop-color="#A2CC39"/>
</linearGradient>
<linearGradient id="paint5_linear" x1="62.6265" y1="152.832" x2="103.862" y2="46.9889" gradientUnits="userSpaceOnUse">
<stop offset="0.07" stop-color="#A2CC39"/>
<stop offset="0.26" stop-color="#81C45E"/>
<stop offset="0.92" stop-color="#0FA7DF"/>
</linearGradient>
</defs>
</svg>
