<svg width="43" height="43" viewBox="0 0 43 43" fill="none" xmlns="http://www.w3.org/2000/svg">
<path d="M14.3333 21.5L14.3333 14.3333C14.3333 10.3753 17.5419 7.16667 21.4999 7.16667V7.16667C25.458 7.16667 28.6666 10.3753 28.6666 14.3333L28.6666 21.5" stroke="white" stroke-width="3" stroke-linecap="round"/>
<path d="M6.86102 19.7928C7.00609 18.0519 7.07863 17.1815 7.65271 16.6532C8.2268 16.125 9.10027 16.125 10.8472 16.125H32.1528C33.8997 16.125 34.7732 16.125 35.3473 16.6532C35.9214 17.1815 35.9939 18.0519 36.139 19.7928L37.4445 35.4589C37.529 36.4724 37.5712 36.9792 37.2741 37.3021C36.977 37.625 36.4685 37.625 35.4514 37.625H7.5486C6.53155 37.625 6.02302 37.625 5.72592 37.3021C5.42882 36.9792 5.47105 36.4724 5.55551 35.4589L6.86102 19.7928Z" stroke="white" stroke-width="3"/>
</svg>
