<svg width="274" height="55" viewBox="0 0 274 55" fill="none" xmlns="http://www.w3.org/2000/svg">
<g clip-path="url(#clip0_14_82)">
<path d="M20.5752 3.09668C17.3057 3.43946 14.001 4.76661 11.2939 6.81446C10.3887 7.49122 8.53418 9.34571 7.85742 10.251C6.67969 11.8066 5.56348 13.9072 4.97461 15.6826C4.41211 17.3613 4.04297 19.6289 4.04297 21.3604V22.1338L11.1533 27.1348L18.2549 32.1357L16.4268 32.1621L14.5898 32.1797V40.0898V48H22.5H30.4102V40.0898V32.1797L28.5645 32.1621L26.7275 32.1357L33.8555 27.126L40.9746 22.1162L40.9219 20.8857C40.7109 16.0166 38.8828 11.8066 35.5166 8.44922C31.5352 4.47657 26.0859 2.5254 20.5752 3.09668ZM22.9043 5.77735C24.249 6.41895 25.7959 10.3828 26.4111 14.7773C26.543 15.7002 26.8066 18.3018 26.8066 18.6621C26.8066 18.7939 26.7451 18.7852 26.3057 18.583C23.9238 17.5283 21.041 17.5195 18.7471 18.5654L18.1934 18.8115V18.5742C18.1934 18.0469 18.3867 16.1484 18.5537 14.9531C19.0547 11.4375 20.0479 8.25586 21.1113 6.76172C21.5684 6.1377 21.7266 5.97071 22.1045 5.77735C22.4385 5.60157 22.5352 5.60157 22.9043 5.77735ZM29.5225 7.30664C33.9258 9.5127 37.0547 13.6172 38.0127 18.4512L38.0742 18.7412L37.7314 18.5918C37.0371 18.293 36.0527 18.0117 35.2002 17.8799C33.4863 17.625 31.3154 17.959 29.8213 18.7148L29.4609 18.8994L29.3994 18.0029C29.1182 13.6963 28.2305 9.61817 27.0176 7.05176C26.8066 6.60352 26.6309 6.2168 26.6309 6.19922C26.6309 6.11133 28.793 6.9375 29.5225 7.30664ZM18.2549 6.35743C18.2285 6.41895 18.0439 6.84082 17.8506 7.28028C16.6904 9.92579 15.8643 13.8193 15.5918 17.8711C15.5566 18.3984 15.5039 18.8203 15.4775 18.8203C15.4424 18.8203 15.082 18.6797 14.6777 18.5215C13.6758 18.1084 13.0518 17.959 11.9531 17.8359C10.4854 17.6777 8.75391 17.9502 7.33887 18.5566C6.86426 18.7588 6.86426 18.7939 7.17188 17.5811C8.15625 13.6875 10.6699 10.2246 14.0625 8.09766C14.9854 7.51758 16.5234 6.77051 17.4023 6.48047C18.1582 6.23438 18.3164 6.20801 18.2549 6.35743ZM12.4365 20.5693C13.5791 20.8066 15.0381 21.5273 15.5742 22.1338C15.7412 22.3184 19.0986 29.3672 19.0547 29.4199C19.0195 29.4463 7.86621 21.624 7.69043 21.4482C7.57617 21.334 7.68164 21.2725 8.49902 20.9297C9.7207 20.4199 11.1006 20.2881 12.4365 20.5693ZM24.2139 20.6221C24.7852 20.7803 26.0156 21.3516 26.3672 21.624L26.5781 21.791L25.585 23.8916C25.04 25.043 24.1348 26.959 23.5723 28.1543C23.001 29.3496 22.5176 30.334 22.4912 30.334C22.4033 30.334 18.4482 21.8789 18.4834 21.7734C18.6064 21.4746 20.2148 20.7275 21.1729 20.5254C21.8936 20.376 23.4756 20.4287 24.2139 20.6221ZM35.5693 20.6221C36.2285 20.7803 37.3711 21.2725 37.3359 21.3867C37.3008 21.4922 25.9893 29.4551 25.9365 29.4111C25.9189 29.3936 26.6484 27.8027 27.5537 25.8779C29.4434 21.8613 29.4434 21.8701 30.9023 21.1406C32.3438 20.4287 34.0049 20.2441 35.5693 20.6221ZM27.7734 40.0898V45.3633H22.5H17.2266V40.0898V34.8164H22.5H27.7734V40.0898Z" fill="white"/>
</g>
<path d="M60.0878 22.744H51.1918L49.7198 27H45.0158L53.0478 4.632H58.2638L66.2958 27H61.5598L60.0878 22.744ZM58.8718 19.16L55.6398 9.816L52.4078 19.16H58.8718ZM77.938 4.664V27H73.458V4.664H77.938ZM98.0443 27L93.1163 18.296H91.0043V27H86.5243V4.664H94.9083C96.6363 4.664 98.1083 4.97333 99.3243 5.592C100.54 6.18933 101.447 7.01067 102.044 8.056C102.663 9.08 102.972 10.232 102.972 11.512C102.972 12.984 102.546 14.3173 101.692 15.512C100.839 16.6853 99.5696 17.496 97.8843 17.944L103.228 27H98.0443ZM91.0043 14.936H94.7483C95.9643 14.936 96.8709 14.648 97.4683 14.072C98.0656 13.4747 98.3643 12.6533 98.3643 11.608C98.3643 10.584 98.0656 9.79467 97.4683 9.24C96.8709 8.664 95.9643 8.376 94.7483 8.376H91.0043V14.936Z" fill="white"/>
<path d="M49.3502 33.04C50.8169 33.04 52.1036 33.3267 53.2102 33.9C54.3302 34.4733 55.1902 35.2933 55.7902 36.36C56.4036 37.4133 56.7102 38.64 56.7102 40.04C56.7102 41.44 56.4036 42.6667 55.7902 43.72C55.1902 44.76 54.3302 45.5667 53.2102 46.14C52.1036 46.7133 50.8169 47 49.3502 47H44.4702V33.04H49.3502ZM49.2502 44.62C50.7169 44.62 51.8502 44.22 52.6502 43.42C53.4502 42.62 53.8502 41.4933 53.8502 40.04C53.8502 38.5867 53.4502 37.4533 52.6502 36.64C51.8502 35.8133 50.7169 35.4 49.2502 35.4H47.2702V44.62H49.2502ZM68.6062 47L65.5262 41.56H64.2062V47H61.4062V33.04H66.6462C67.7262 33.04 68.6462 33.2333 69.4062 33.62C70.1662 33.9933 70.7328 34.5067 71.1062 35.16C71.4928 35.8 71.6862 36.52 71.6862 37.32C71.6862 38.24 71.4195 39.0733 70.8862 39.82C70.3528 40.5533 69.5595 41.06 68.5062 41.34L71.8462 47H68.6062ZM64.2062 39.46H66.5462C67.3062 39.46 67.8728 39.28 68.2462 38.92C68.6195 38.5467 68.8062 38.0333 68.8062 37.38C68.8062 36.74 68.6195 36.2467 68.2462 35.9C67.8728 35.54 67.3062 35.36 66.5462 35.36H64.2062V39.46ZM83.2987 47.14C81.992 47.14 80.792 46.8333 79.6987 46.22C78.6053 45.6067 77.7387 44.76 77.0987 43.68C76.4587 42.5867 76.1387 41.3533 76.1387 39.98C76.1387 38.62 76.4587 37.4 77.0987 36.32C77.7387 35.2267 78.6053 34.3733 79.6987 33.76C80.792 33.1467 81.992 32.84 83.2987 32.84C84.6187 32.84 85.8187 33.1467 86.8987 33.76C87.992 34.3733 88.852 35.2267 89.4787 36.32C90.1187 37.4 90.4387 38.62 90.4387 39.98C90.4387 41.3533 90.1187 42.5867 89.4787 43.68C88.852 44.76 87.992 45.6067 86.8987 46.22C85.8053 46.8333 84.6053 47.14 83.2987 47.14ZM83.2987 44.64C84.1387 44.64 84.8787 44.4533 85.5187 44.08C86.1587 43.6933 86.6587 43.1467 87.0187 42.44C87.3787 41.7333 87.5587 40.9133 87.5587 39.98C87.5587 39.0467 87.3787 38.2333 87.0187 37.54C86.6587 36.8333 86.1587 36.2933 85.5187 35.92C84.8787 35.5467 84.1387 35.36 83.2987 35.36C82.4587 35.36 81.712 35.5467 81.0587 35.92C80.4187 36.2933 79.9187 36.8333 79.5587 37.54C79.1987 38.2333 79.0187 39.0467 79.0187 39.98C79.0187 40.9133 79.1987 41.7333 79.5587 42.44C79.9187 43.1467 80.4187 43.6933 81.0587 44.08C81.712 44.4533 82.4587 44.64 83.2987 44.64ZM105.302 37.36C105.302 38.1067 105.122 38.8067 104.762 39.46C104.415 40.1133 103.862 40.64 103.102 41.04C102.355 41.44 101.408 41.64 100.262 41.64H97.9218V47H95.1218V33.04H100.262C101.342 33.04 102.262 33.2267 103.022 33.6C103.782 33.9733 104.348 34.4867 104.722 35.14C105.108 35.7933 105.302 36.5333 105.302 37.36ZM100.142 39.38C100.915 39.38 101.488 39.2067 101.862 38.86C102.235 38.5 102.422 38 102.422 37.36C102.422 36 101.662 35.32 100.142 35.32H97.9218V39.38H100.142Z" fill="white"/>
<path d="M158.37 12.872V38H153.33V21.656L146.598 38H142.782L136.014 21.656V38H130.974V12.872H136.698L144.69 31.556L152.682 12.872H158.37ZM178.761 33.212H168.753L167.097 38H161.805L170.841 12.836H176.709L185.745 38H180.417L178.761 33.212ZM177.393 29.18L173.757 18.668L170.121 29.18H177.393ZM202.083 38L196.539 28.208H194.163V38H189.123V12.872H198.555C200.499 12.872 202.155 13.22 203.523 13.916C204.891 14.588 205.911 15.512 206.583 16.688C207.279 17.84 207.627 19.136 207.627 20.576C207.627 22.232 207.147 23.732 206.187 25.076C205.227 26.396 203.799 27.308 201.903 27.812L207.915 38H202.083ZM194.163 24.428H198.375C199.743 24.428 200.763 24.104 201.435 23.456C202.107 22.784 202.443 21.86 202.443 20.684C202.443 19.532 202.107 18.644 201.435 18.02C200.763 17.372 199.743 17.048 198.375 17.048H194.163V24.428ZM226.369 38L217.225 26.804V38H212.185V12.872H217.225V24.14L226.369 12.872H232.453L222.085 25.328L232.741 38H226.369ZM241.096 16.94V23.24H249.556V27.236H241.096V33.896H250.636V38H236.056V12.836H250.636V16.94H241.096ZM272.316 12.872V16.94H265.62V38H260.58V16.94H253.884V12.872H272.316Z" fill="white"/>
<rect x="115" y="3" width="3" height="45" fill="white"/>
<defs>
<clipPath id="clip0_14_82">
<rect width="45" height="45" fill="white" transform="translate(0 3)"/>
</clipPath>
</defs>
</svg>
