<svg width="45" height="45" viewBox="0 0 45 45" fill="none" xmlns="http://www.w3.org/2000/svg">
<g clip-path="url(#clip0_0_95)">
<path d="M20.5752 0.0966835C17.3057 0.439457 14.001 1.76661 11.2939 3.81446C10.3887 4.49121 8.53418 6.34571 7.85742 7.25098C6.67969 8.80664 5.56348 10.9072 4.97461 12.6826C4.41211 14.3613 4.04297 16.6289 4.04297 18.3604V19.1338L11.1533 24.1348L18.2549 29.1357L16.4268 29.1621L14.5898 29.1797V37.0898V45H22.5H30.4102V37.0898V29.1797L28.5645 29.1621L26.7275 29.1357L33.8555 24.126L40.9746 19.1162L40.9219 17.8857C40.7109 13.0166 38.8828 8.80664 35.5166 5.44922C31.5352 1.47657 26.0859 -0.474606 20.5752 0.0966835ZM22.9043 2.77735C24.249 3.41895 25.7959 7.38282 26.4111 11.7773C26.543 12.7002 26.8066 15.3018 26.8066 15.6621C26.8066 15.7939 26.7451 15.7852 26.3057 15.583C23.9238 14.5283 21.041 14.5195 18.7471 15.5654L18.1934 15.8115V15.5742C18.1934 15.0469 18.3867 13.1484 18.5537 11.9531C19.0547 8.4375 20.0479 5.25586 21.1113 3.76172C21.5684 3.1377 21.7266 2.97071 22.1045 2.77735C22.4385 2.60157 22.5352 2.60157 22.9043 2.77735ZM29.5225 4.30664C33.9258 6.5127 37.0547 10.6172 38.0127 15.4512L38.0742 15.7412L37.7314 15.5918C37.0371 15.293 36.0527 15.0117 35.2002 14.8799C33.4863 14.625 31.3154 14.959 29.8213 15.7148L29.4609 15.8994L29.3994 15.0029C29.1182 10.6963 28.2305 6.61817 27.0176 4.05176C26.8066 3.60352 26.6309 3.2168 26.6309 3.19922C26.6309 3.11133 28.793 3.9375 29.5225 4.30664ZM18.2549 3.35743C18.2285 3.41895 18.0439 3.84082 17.8506 4.28028C16.6904 6.92579 15.8643 10.8193 15.5918 14.8711C15.5566 15.3984 15.5039 15.8203 15.4775 15.8203C15.4424 15.8203 15.082 15.6797 14.6777 15.5215C13.6758 15.1084 13.0518 14.959 11.9531 14.8359C10.4854 14.6777 8.75391 14.9502 7.33887 15.5566C6.86426 15.7588 6.86426 15.7939 7.17188 14.5811C8.15625 10.6875 10.6699 7.22461 14.0625 5.09766C14.9854 4.51758 16.5234 3.77051 17.4023 3.48047C18.1582 3.23438 18.3164 3.20801 18.2549 3.35743ZM12.4365 17.5693C13.5791 17.8066 15.0381 18.5273 15.5742 19.1338C15.7412 19.3184 19.0986 26.3672 19.0547 26.4199C19.0195 26.4463 7.86621 18.624 7.69043 18.4482C7.57617 18.334 7.68164 18.2725 8.49902 17.9297C9.7207 17.4199 11.1006 17.2881 12.4365 17.5693ZM24.2139 17.6221C24.7852 17.7803 26.0156 18.3516 26.3672 18.624L26.5781 18.791L25.585 20.8916C25.04 22.043 24.1348 23.959 23.5723 25.1543C23.001 26.3496 22.5176 27.334 22.4912 27.334C22.4033 27.334 18.4482 18.8789 18.4834 18.7734C18.6064 18.4746 20.2148 17.7275 21.1729 17.5254C21.8936 17.376 23.4756 17.4287 24.2139 17.6221ZM35.5693 17.6221C36.2285 17.7803 37.3711 18.2725 37.3359 18.3867C37.3008 18.4922 25.9893 26.4551 25.9365 26.4111C25.9189 26.3936 26.6484 24.8027 27.5537 22.8779C29.4434 18.8613 29.4434 18.8701 30.9023 18.1406C32.3438 17.4287 34.0049 17.2441 35.5693 17.6221ZM27.7734 37.0898V42.3633H22.5H17.2266V37.0898V31.8164H22.5H27.7734V37.0898Z" fill="black"/>
</g>
<defs>
<clipPath id="clip0_0_95">
<rect width="45" height="45" fill="white"/>
</clipPath>
</defs>
</svg>
